<svg width="37" height="35" viewBox="0 0 37 35" fill="none" xmlns="http://www.w3.org/2000/svg">
<path d="M36.3929 17C36.3929 16.7143 36.25 16.3929 36.0357 16.1786L34.25 14.3929C34.0357 14.1786 33.7143 14.0357 33.4286 14.0357C33.1429 14.0357 32.8214 14.1786 32.6071 14.3929L18.5714 28.4286L4.53571 14.3929C4.32143 14.1786 4 14.0357 3.71429 14.0357C3.39286 14.0357 3.10714 14.1786 2.89286 14.3929L1.10714 16.1786C0.892857 16.3929 0.75 16.7143 0.75 17C0.75 17.2857 0.892857 17.6071 1.10714 17.8214L17.75 34.4643C17.9643 34.6786 18.2857 34.8214 18.5714 34.8214C18.8571 34.8214 19.1786 34.6786 19.3929 34.4643L36.0357 17.8214C36.25 17.6071 36.3929 17.2857 36.3929 17ZM36.3929 3.28571C36.3929 3 36.25 2.67857 36.0357 2.46428L34.25 0.67857C34.0357 0.464283 33.7143 0.321426 33.4286 0.321426C33.1429 0.321426 32.8214 0.464283 32.6071 0.67857L18.5714 14.7143L4.53571 0.67857C4.32143 0.464283 4 0.321426 3.71429 0.321426C3.39286 0.321426 3.10714 0.464283 2.89286 0.67857L1.10714 2.46428C0.892857 2.67857 0.75 3 0.75 3.28571C0.75 3.57143 0.892857 3.89286 1.10714 4.10714L17.75 20.75C17.9643 20.9643 18.2857 21.1071 18.5714 21.1071C18.8571 21.1071 19.1786 20.9643 19.3929 20.75L36.0357 4.10714C36.25 3.89286 36.3929 3.57143 36.3929 3.28571Z" fill="#333333"/>
</svg>
