<svg width="30" height="25" viewBox="0 0 30 25" fill="none" xmlns="http://www.w3.org/2000/svg">
<path d="M29.5605 13.6958C29.3178 13.6958 29.1211 13.8799 29.1211 14.1071V19.6587C29.1211 19.9357 28.8803 20.161 28.5844 20.161H26.63C26.3441 20.161 26.1115 20.3788 26.1115 20.6464V23.2872L21.3944 20.2463C21.3076 20.1905 21.2061 20.161 21.1008 20.161H13.0742C12.7782 20.161 12.5375 19.9357 12.5375 19.6587V16.3348H14.2163C14.4591 16.3348 14.6558 16.1507 14.6558 15.9235C14.6558 15.6964 14.4591 15.5122 14.2163 15.5122H6.89279C6.80373 15.5122 6.71684 15.5375 6.64354 15.5848L3.18146 17.8167V15.9235C3.18146 15.6964 2.98471 15.5122 2.74201 15.5122H1.41152C1.11785 15.5122 0.878906 15.2886 0.878906 15.0138V2.1123C0.878906 1.83745 1.11785 1.61383 1.41152 1.61383H4.41773C4.66043 1.61383 4.85719 1.42968 4.85719 1.20254C4.85719 0.975405 4.66043 0.79126 4.41773 0.79126H1.41152C0.633223 0.791205 0 1.38384 0 2.1123V15.0138C0 15.7422 0.633223 16.3348 1.41152 16.3348H2.3025V18.5994C2.3025 18.7522 2.39303 18.8924 2.53752 18.9634C2.60174 18.995 2.67193 19.0107 2.74189 19.0107C2.82937 19.0107 2.9165 18.9863 2.99121 18.9381L7.02943 16.3348H11.6585V19.6587C11.6585 20.3892 12.2936 20.9836 13.0741 20.9836H20.9889L26.1778 24.3287C26.2662 24.3857 26.3688 24.4145 26.4718 24.4145C26.5543 24.4145 26.6371 24.396 26.7132 24.3586C26.8842 24.2745 26.9904 24.1099 26.9904 23.929V20.9836H28.5844C29.365 20.9836 30 20.3893 30 19.6587V14.1071C30 13.8799 29.8033 13.6958 29.5605 13.6958Z" fill="#FF9F0E"/>
<path d="M28.5847 9.64339H25.0388V2.1123C25.0388 1.38384 24.4056 0.79126 23.6273 0.79126H6.47656C6.23387 0.79126 6.03711 0.975405 6.03711 1.20254C6.03711 1.42968 6.23387 1.61383 6.47656 1.61383H23.6274C23.921 1.61383 24.16 1.83745 24.16 2.1123V15.0138C24.16 15.2886 23.921 15.5122 23.6274 15.5122H16.2489C16.0062 15.5122 15.8095 15.6964 15.8095 15.9235C15.8095 16.1507 16.0062 16.3348 16.2489 16.3348H23.6274C24.4057 16.3348 25.0389 15.7422 25.0389 15.0138V10.466H28.5847C28.8807 10.466 29.1215 10.6913 29.1215 10.9683V12.1961C29.1215 12.4233 29.3182 12.6074 29.5609 12.6074C29.8037 12.6074 30.0004 12.4233 30.0004 12.1961V10.9683C30.0003 10.2377 29.3653 9.64339 28.5847 9.64339Z" fill="#FF9F0E"/>
<path d="M21.9946 3.24438H3.05273C2.81004 3.24438 2.61328 3.42853 2.61328 3.65567C2.61328 3.88281 2.81004 4.06695 3.05273 4.06695H21.9946C22.2373 4.06695 22.434 3.88281 22.434 3.65567C22.434 3.42853 22.2373 3.24438 21.9946 3.24438Z" fill="#FF9F0E"/>
<path d="M21.9951 8.16626H18.9941C18.7514 8.16626 18.5547 8.3504 18.5547 8.57754C18.5547 8.80468 18.7514 8.98883 18.9941 8.98883H21.9951C22.2378 8.98883 22.4345 8.80468 22.4345 8.57754C22.4345 8.3504 22.2378 8.16626 21.9951 8.16626Z" fill="#FF9F0E"/>
<path d="M3.05273 8.16626C2.81004 8.16626 2.61328 8.3504 2.61328 8.57754C2.61328 8.80468 2.81004 8.98883 3.05273 8.98883H16.9593C17.2021 8.98883 17.3988 8.80468 17.3988 8.57754C17.3988 8.3504 17.2021 8.16626 16.9593 8.16626H3.05273Z" fill="#FF9F0E"/>
<path d="M3.05273 13.0654C2.81004 13.0654 2.61328 13.2496 2.61328 13.4767C2.61328 13.7038 2.81004 13.888 3.05273 13.888H6.05367C6.29637 13.888 6.49312 13.7038 6.49312 13.4767C6.49312 13.2496 6.29637 13.0654 6.05367 13.0654H3.05273Z" fill="#FF9F0E"/>
<path d="M21.9945 13.0654H8.08789C7.8452 13.0654 7.64844 13.2496 7.64844 13.4767C7.64844 13.7038 7.8452 13.888 8.08789 13.888H21.9945C22.2372 13.888 22.4339 13.7038 22.4339 13.4767C22.4339 13.2496 22.2372 13.0654 21.9945 13.0654Z" fill="#FF9F0E"/>
<path d="M21.9946 10.5977H3.05273C2.81004 10.5977 2.61328 10.7818 2.61328 11.0089C2.61328 11.2361 2.81004 11.4202 3.05273 11.4202H21.9946C22.2373 11.4202 22.434 11.2361 22.434 11.0089C22.434 10.7818 22.2373 10.5977 21.9946 10.5977Z" fill="#FF9F0E"/>
<path d="M20.6743 6.13394C20.6743 5.9068 20.4776 5.72266 20.2348 5.72266H3.05078C2.80809 5.72266 2.61133 5.9068 2.61133 6.13394C2.61133 6.36108 2.80809 6.54522 3.05078 6.54522H20.2348C20.4776 6.54522 20.6743 6.36108 20.6743 6.13394Z" fill="#FF9F0E"/>
</svg>
