<svg width="35" height="35" viewBox="0 0 35 35" fill="none" xmlns="http://www.w3.org/2000/svg">
<g clip-path="url(#clip0)">
<path d="M1.92764 28.4233C0.863099 28.4233 0 29.2864 0 30.3509C0 31.4154 0.863099 32.2785 1.92764 32.2785H11.5658L5.68283 28.4233H1.92764Z" fill="#D48B1E"/>
<path d="M24.8928 28.4713L25.7019 21.9978H20.5615V30.9934C20.5615 31.7032 21.1368 32.2785 21.8466 32.2785H24.4168H26.6276C27.6134 32.2785 28.2501 31.2035 27.7526 30.3526C27.1603 29.3391 26.1142 28.6233 24.8928 28.4713Z" fill="#D1D8DC"/>
<path d="M33.7131 6.57669H32.4394C31.4169 6.57669 30.4362 6.17044 29.7132 5.44749L28.1163 3.85061C27.3933 3.12759 26.4128 2.7215 25.3902 2.7215H20.8735C19.851 2.7215 18.8704 3.12767 18.1474 3.85061L17.9914 4.00659V14.5439C17.9914 14.5439 10.4609 18.8836 8.16441 20.4214C8.01976 20.5123 7.8833 20.6105 7.74684 20.7121C5.9 22.0876 4.79715 24.4094 5.23722 26.978C5.68997 29.6204 7.85334 31.7674 10.5003 32.1927C13.6579 32.7001 16.476 30.9039 17.5402 28.2209C17.7955 27.5772 18.3943 27.1376 19.087 27.1376H21.8468C22.2677 27.1376 22.6983 27.0956 23.1374 27.0071C25.6846 26.4937 27.7355 24.3982 28.175 21.8373C28.613 19.2852 27.5265 16.9803 25.702 15.6016V13.0022H29.5572C30.9709 13.0022 32.7226 12.0104 33.4499 10.7981L34.8151 8.5228C35.3289 7.66636 34.712 6.57669 33.7131 6.57669Z" fill="#FF9F0E"/>
<path d="M26.9873 7.53762C27.5196 7.53762 27.9511 7.1061 27.9511 6.5738C27.9511 6.0415 27.5196 5.60999 26.9873 5.60999C26.455 5.60999 26.0234 6.0415 26.0234 6.5738C26.0234 7.1061 26.455 7.53762 26.9873 7.53762Z" fill="#010101"/>
<path d="M18.1235 3.87408L15.1154 6.88224C14.4881 7.50952 14.1357 8.36025 14.1357 9.24728V10.2893C14.1357 12.1536 15.3964 13.8627 17.2273 14.214C19.6914 14.6867 21.8463 12.8109 21.8463 10.432V2.72144H20.9062C19.8625 2.72144 18.8615 3.13604 18.1235 3.87408Z" fill="#010101"/>
<path d="M17.9716 32.2785H11.8936C11.8936 30.1493 13.6196 28.4233 15.7488 28.4233C17.2019 28.4233 18.4673 29.2273 19.1243 30.4145C19.5872 31.2511 18.9277 32.2785 17.9716 32.2785Z" fill="#D1D8DC"/>
<path d="M14.1357 19.4276C13.6955 19.4276 13.266 19.4728 12.8506 19.5572C13.7991 19.7498 14.6577 20.1685 15.4045 20.7284C15.3982 20.7231 15.3923 20.7177 15.3857 20.7128H15.4212C15.4212 20.7231 15.4237 20.7325 15.424 20.7426C16.9751 21.9154 17.9909 23.7584 17.9909 25.8531C17.9909 26.8531 17.7424 27.7882 17.3352 28.632C17.4017 28.494 17.4827 28.3642 17.5398 28.221C17.7952 27.5772 18.3938 27.1377 19.0866 27.1377H20.4319C20.516 26.7226 20.5612 26.2932 20.5612 25.8532C20.5611 22.3043 17.6845 19.4276 14.1357 19.4276Z" fill="#9B6534"/>
<path d="M33.7133 6.57668H32.4396C31.4171 6.57668 30.4363 6.17043 29.7134 5.44757L28.1164 3.85061C28.1149 3.84884 28.1124 3.84779 28.1108 3.84595C29.0019 4.94904 29.5575 6.33356 29.5575 7.86177C29.5575 9.97358 28.525 11.8309 26.9521 13.0021H29.5575C30.9713 13.0021 32.7228 12.0104 33.4501 10.798L34.8152 8.52279C35.3292 7.66636 34.7123 6.57668 33.7133 6.57668Z" fill="#D1D8DC"/>
<path d="M15.4212 20.7127C15.4212 20.7237 15.4244 20.7338 15.4244 20.7447C15.4197 20.7409 15.4152 20.7367 15.4102 20.733C15.402 20.7261 15.3943 20.7189 15.3857 20.7126H15.4212V20.7127Z" fill="#FF9F0E"/>
<path d="M33.7125 6.57671H32.4387C32.3936 6.57671 32.3506 6.56506 32.3057 6.56354C32.1944 6.79855 32.127 7.0583 32.127 7.33572C32.127 8.33592 32.9377 9.14689 33.9381 9.14689C34.1349 9.14689 34.3209 9.10753 34.4985 9.0493L34.8145 8.5229C35.3283 7.66639 34.7115 6.57671 33.7125 6.57671Z" fill="#010101"/>
</g>
<defs>
<clipPath id="clip0">
<rect width="35" height="35" fill="white"/>
</clipPath>
</defs>
</svg>
