<svg width="13" height="12" viewBox="0 0 13 12" fill="none" xmlns="http://www.w3.org/2000/svg">
<g clip-path="url(#clip0)">
<path d="M1.58921 5.85234C1.58921 5.85234 2.06492 6.54884 3.06198 7.13838C3.06198 7.13838 2.33987 1.0563 7.0449 0C5.83945 4.40909 8.57826 5.65252 9.57661 3.32311C11.2439 5.54149 9.97796 7.47691 9.97796 7.47691C10.6616 7.57507 11.2359 6.83074 11.2359 6.83074C11.241 6.92243 11.2439 7.01475 11.2439 7.10773C11.2439 9.80965 9.04603 12 6.33483 12C3.62363 12 1.42578 9.80965 1.42578 7.1077C1.42578 6.67369 1.48279 6.25298 1.58921 5.85234Z" fill="#FF6536"/>
<path d="M11.237 6.83074C11.237 6.83074 10.6627 7.57507 9.9791 7.47691C9.9791 7.47691 11.245 5.54149 9.57774 3.32311C8.57939 5.65252 5.84058 4.40909 7.04603 0C6.79404 0.0565781 6.55773 0.127664 6.33594 0.211359V12C9.04714 12 11.245 9.80965 11.245 7.1077C11.245 7.01473 11.2421 6.92243 11.237 6.83074Z" fill="#FF421D"/>
<path d="M4.18164 9.85448C4.18164 11.0394 5.14554 12 6.33455 12C7.52356 12 8.48746 11.0394 8.48746 9.85448C8.48746 9.22024 8.21134 8.65029 7.77233 8.2575C6.93994 9.38449 5.75376 7.67494 6.67819 6.42651C6.67819 6.42651 4.18164 6.7383 4.18164 9.85448Z" fill="#FBBF00"/>
<path d="M8.48885 9.85448C8.48885 9.22024 8.21273 8.65029 7.77372 8.2575C6.94133 9.38449 5.75514 7.67494 6.67958 6.42651C6.67958 6.42651 6.54393 6.44351 6.33594 6.50892V12C7.52495 12 8.48885 11.0394 8.48885 9.85448Z" fill="#FFA900"/>
</g>
<defs>
<clipPath id="clip0">
<rect x="0.314453" width="12.0411" height="12" rx="6" fill="white"/>
</clipPath>
</defs>
</svg>
