<svg width="21" height="19" viewBox="0 0 21 19" fill="none" xmlns="http://www.w3.org/2000/svg">
<g clip-path="url(#clip0)">
<path d="M18.7689 2.87784C17.7175 1.87174 16.2749 1.31763 14.7065 1.31763C13.5342 1.31763 12.4605 1.64465 11.5153 2.28955C11.0384 2.61507 10.6062 3.01332 10.2252 3.47816C9.84431 3.01346 9.412 2.61507 8.9349 2.28955C7.98986 1.64465 6.9162 1.31763 5.74384 1.31763C4.17543 1.31763 2.73268 1.87174 1.68134 2.87784C0.642546 3.87218 0.0703125 5.2306 0.0703125 6.70304C0.0703125 8.21854 0.710415 9.60581 2.08468 11.0689C3.31406 12.3777 5.08096 13.7064 7.12709 15.2448C7.82576 15.7702 8.61772 16.3658 9.44004 17.0001C9.65728 17.168 9.93604 17.2604 10.2252 17.2604C10.5142 17.2604 10.7931 17.168 11.01 17.0004C11.8323 16.3659 12.6248 15.7701 13.3237 15.2444C15.3696 13.7062 17.1365 12.3777 18.3658 11.0688C19.7401 9.60581 20.38 8.21854 20.38 6.7029C20.38 5.2306 19.8078 3.87218 18.7689 2.87784Z" fill="#FFFCEC"/>
</g>
<defs>
<clipPath id="clip0">
<rect x="0.0703125" y="0.337646" width="20.3097" height="17.9197" fill="white"/>
</clipPath>
</defs>
</svg>
