<svg width="23" height="21" viewBox="0 0 23 21" fill="none" xmlns="http://www.w3.org/2000/svg">
<g clip-path="url(#clip0)">
<path d="M12.3746 5.6721C12.3746 6.13025 11.9536 6.50166 11.4343 6.50166C10.9151 6.50166 10.4941 6.13025 10.4941 5.6721C10.4941 5.21394 10.9151 4.84253 11.4343 4.84253C11.9536 4.84253 12.3746 5.21394 12.3746 5.6721Z" fill="#FFFCEC"/>
<path d="M11.4326 16.457C11.0434 16.457 10.7274 16.1783 10.7274 15.8348V9.40531H9.78723C9.39796 9.40531 9.08203 9.12656 9.08203 8.7831C9.08203 8.43964 9.39796 8.16089 9.78723 8.16089H11.4326C11.8219 8.16089 12.1378 8.43964 12.1378 8.7831V15.8348C12.1378 16.1783 11.8219 16.457 11.4326 16.457Z" fill="#FFFCEC"/>
<path d="M11.4336 20.6052C5.21178 20.6052 0.150391 16.1394 0.150391 10.6497C0.150391 5.16011 5.21178 0.694336 11.4336 0.694336C17.6554 0.694336 22.7168 5.16011 22.7168 10.6497C22.7168 16.1394 17.6554 20.6052 11.4336 20.6052ZM11.4336 1.93876C5.98946 1.93876 1.56079 5.84628 1.56079 10.6497C1.56079 15.4532 5.98946 19.3607 11.4336 19.3607C16.8777 19.3607 21.3064 15.4532 21.3064 10.6497C21.3064 5.84628 16.8777 1.93876 11.4336 1.93876Z" fill="#FFFCEC"/>
<path d="M13.5497 16.4571H9.31848C8.92921 16.4571 8.61328 16.1783 8.61328 15.8349C8.61328 15.4914 8.92921 15.2126 9.31848 15.2126H13.5497C13.9389 15.2126 14.2549 15.4914 14.2549 15.8349C14.2549 16.1783 13.9389 16.4571 13.5497 16.4571Z" fill="#FFFCEC"/>
</g>
<defs>
<clipPath id="clip0">
<rect x="0.150391" y="0.694336" width="22.5664" height="19.9108" fill="white"/>
</clipPath>
</defs>
</svg>
