<svg width="39" height="37" viewBox="0 0 39 37" fill="none" xmlns="http://www.w3.org/2000/svg">
<g clip-path="url(#clip0)">
<path d="M3.2245 3.25355C0.275455 6.19479 0.879023 9.3192 0.879023 18.8111C0.879023 26.6934 -0.55328 34.5953 6.94286 36.4555C9.28364 37.0335 30.0239 37.0335 32.3615 36.4525C35.4826 35.6793 38.022 33.2485 38.3691 29.0101C38.4176 28.4185 38.4176 9.2141 38.3675 8.61054C37.9985 4.09583 35.1042 1.4939 31.2904 0.966913C30.4164 0.8453 30.2412 0.809266 25.7567 0.801759C9.84968 0.809266 6.36274 0.129132 3.2245 3.25355Z" fill="url(#paint0_linear)"/>
<path d="M19.6391 5.5143C13.9615 5.5143 8.57003 5.02935 6.5107 10.1041C5.66007 12.2 5.7836 14.9221 5.7836 18.8197C5.7836 22.2399 5.66945 25.4544 6.5107 27.5338C8.56533 32.6116 14.0006 32.1251 19.636 32.1251C25.0728 32.1251 30.6785 32.6686 32.7628 27.5338C33.615 25.4169 33.4899 22.7354 33.4899 18.8197C33.4899 13.6219 33.7886 10.2662 31.1632 7.74689C28.505 5.19451 24.9102 5.5143 19.6328 5.5143H19.6391ZM18.3976 7.91204C30.2406 7.89402 31.748 6.62985 30.9161 24.1917C30.6206 30.403 25.6951 29.7214 19.6407 29.7214C8.6013 29.7214 8.28388 29.4181 8.28388 18.8137C8.28388 8.0862 9.15952 7.91805 18.3976 7.90904V7.91204ZM27.0352 10.1206C26.1173 10.1206 25.373 10.8353 25.373 11.7166C25.373 12.5979 26.1173 13.3126 27.0352 13.3126C27.953 13.3126 28.6973 12.5979 28.6973 11.7166C28.6973 10.8353 27.953 10.1206 27.0352 10.1206ZM19.6391 11.9868C15.7097 11.9868 12.5245 15.0467 12.5245 18.8197C12.5245 22.5927 15.7097 25.6511 19.6391 25.6511C23.5686 25.6511 26.7521 22.5927 26.7521 18.8197C26.7521 15.0467 23.5686 11.9868 19.6391 11.9868ZM19.6391 14.3846C25.7452 14.3846 25.753 23.2548 19.6391 23.2548C13.5346 23.2548 13.5252 14.3846 19.6391 14.3846Z" fill="white"/>
</g>
<defs>
<linearGradient id="paint0_linear" x1="3.29646" y1="34.5338" x2="36.9543" y2="4.19558" gradientUnits="userSpaceOnUse">
<stop stop-color="#FFDD55"/>
<stop offset="0.5" stop-color="#FF543E"/>
<stop offset="1" stop-color="#C837AB"/>
</linearGradient>
<clipPath id="clip0">
<rect x="0.878906" y="0.80127" width="37.5276" height="36.0336" fill="white"/>
</clipPath>
</defs>
</svg>
