<?xml version="1.0" ?><!DOCTYPE svg  PUBLIC '-//W3C//DTD SVG 1.1//EN'  'http://www.w3.org/Graphics/SVG/1.1/DTD/svg11.dtd'><svg enable-background="new 0 0 100 100" height="100px" id="Layer_1" version="1.1" viewBox="0 0 100 100" width="100px" xml:space="preserve" xmlns="http://www.w3.org/2000/svg" xmlns:xlink="http://www.w3.org/1999/xlink"><g><circle cx="50" cy="50.001" fill="#F99400" r="45"/><g><path clip-rule="evenodd" d="M45.724,59.257c-1.623-0.377-3.136-0.922-4.574-1.662    c-0.515-0.266-1.022-0.551-1.514-0.857c-1.451-0.906-1.902-2.775-1.03-4.213c0.897-1.477,2.756-1.957,4.24-1.057    c1.46,0.883,3.007,1.525,4.688,1.828c3.308,0.594,6.416,0.047,9.312-1.656c0.591-0.348,1.188-0.621,1.893-0.617    c1.367,0.008,2.564,0.883,2.961,2.184c0.399,1.311-0.098,2.73-1.259,3.477c-1.809,1.164-3.768,1.984-5.854,2.498    c-0.09,0.021-0.178,0.047-0.304,0.08c0.085,0.092,0.151,0.164,0.221,0.234c1.854,1.854,3.709,3.705,5.561,5.562    c1.083,1.086,1.311,2.576,0.592,3.818c-1.035,1.789-3.415,2.086-4.906,0.604c-1.848-1.838-3.686-3.684-5.527-5.525    c-0.066-0.066-0.128-0.137-0.275-0.297c-0.061,0.109-0.094,0.215-0.162,0.283c-1.845,1.852-3.69,3.701-5.543,5.545    c-1.271,1.268-3.212,1.26-4.442-0.004c-1.125-1.156-1.157-2.992-0.069-4.205c0.147-0.166,0.307-0.322,0.463-0.479    c1.77-1.771,3.539-3.539,5.309-5.311C45.566,59.425,45.629,59.356,45.724,59.257z" fill="#FFFFFF" fill-rule="evenodd"/><path clip-rule="evenodd" d="M50.005,29.567c5.805,0,10.541,4.738,10.54,10.543    c-0.001,5.812-4.692,10.543-10.536,10.545c-5.877,0.006-10.544-4.732-10.553-10.525C39.446,34.317,44.149,29.583,50.005,29.567z     M54.362,40.12c0.002-2.402-1.941-4.361-4.331-4.367c-2.422-0.006-4.395,1.936-4.399,4.328c-0.004,2.396,1.939,4.391,4.284,4.393    C52.401,44.476,54.36,42.558,54.362,40.12z" fill="#FFFFFF" fill-rule="evenodd"/></g></g></svg>