<svg width="30" height="29" viewBox="0 0 30 29" fill="none" xmlns="http://www.w3.org/2000/svg">
<path d="M14.058 7.1875C14.058 4.84375 12.4342 1.42857 9.70536 1.42857C7.54576 1.42857 6.57478 3.65513 6.57478 5.53013C6.57478 7.87388 8.2154 11.2891 10.9275 11.2891C13.0871 11.2891 14.058 9.0625 14.058 7.1875ZM8.33259 15.2734C8.33259 12.846 6.37388 9.54799 3.69531 9.54799C1.87054 9.54799 1 11.2556 1 12.8795C1 15.3069 2.95871 18.5882 5.63728 18.5882C7.47879 18.5882 8.33259 16.8973 8.33259 15.2734ZM14.9286 14.8214C10.827 14.8214 5.28571 20.7143 5.28571 24.6819C5.28571 26.5737 6.72545 27.1261 8.34933 27.1261C10.7768 27.1261 12.6853 25.6362 14.9286 25.6362C17.0714 25.6362 18.8795 27.1429 21.1228 27.1429C22.8304 27.1429 24.5714 26.808 24.5714 24.6819C24.5714 20.731 19.0301 14.8214 14.9286 14.8214ZM18.9297 11.2891C21.6417 11.2891 23.2824 7.87388 23.2824 5.53013C23.2824 3.65513 22.3114 1.42857 20.1518 1.42857C17.423 1.42857 15.7991 4.84375 15.7991 7.1875C15.7991 9.0625 16.7701 11.2891 18.9297 11.2891ZM26.1618 9.54799C23.4833 9.54799 21.5246 12.846 21.5246 15.2734C21.5246 16.8973 22.3783 18.5882 24.2199 18.5882C26.8984 18.5882 28.8571 15.3069 28.8571 12.8795C28.8571 11.2556 27.9866 9.54799 26.1618 9.54799Z" fill="#333333"/>
<path d="M15.058 7.1875C15.058 5.8181 14.5937 4.1893 13.7429 2.88328C12.8924 1.57785 11.5336 0.42857 9.70536 0.42857V2.42857C10.6059 2.42857 11.4234 2.98688 12.0671 3.97498C12.7104 4.96249 13.058 6.21315 13.058 7.1875H15.058ZM9.70536 0.42857C8.22146 0.42857 7.14962 1.21627 6.49107 2.23233C5.85232 3.21782 5.57478 4.44238 5.57478 5.53013H7.57478C7.57478 4.74288 7.78273 3.91666 8.16937 3.32012C8.5362 2.75415 9.02965 2.42857 9.70536 2.42857V0.42857ZM5.57478 5.53013C5.57478 6.90163 6.04449 8.53059 6.89691 9.83542C7.74814 11.1384 9.1064 12.2891 10.9275 12.2891V10.2891C10.0365 10.2891 9.21837 9.73211 8.57128 8.74158C7.92538 7.75289 7.57478 6.50238 7.57478 5.53013H5.57478ZM10.9275 12.2891C12.4113 12.2891 13.4832 11.5014 14.1417 10.4853C14.7805 9.49981 15.058 8.27525 15.058 7.1875H13.058C13.058 7.97475 12.8501 8.80097 12.4634 9.39751C12.0966 9.96348 11.6032 10.2891 10.9275 10.2891V12.2891ZM9.33259 15.2734C9.33259 13.8229 8.76009 12.1885 7.82572 10.9103C6.89397 9.63563 5.46982 8.54799 3.69531 8.54799V10.548C4.59938 10.548 5.49386 11.1093 6.21111 12.0905C6.92574 13.0682 7.33259 14.2965 7.33259 15.2734H9.33259ZM3.69531 8.54799C2.4231 8.54799 1.45888 9.16255 0.847074 10.0271C0.257506 10.8603 0 11.9071 0 12.8795H2C2 12.2279 2.17776 11.609 2.47966 11.1824C2.75931 10.7872 3.14275 10.548 3.69531 10.548V8.54799ZM0 12.8795C0 14.3304 0.572804 15.9612 1.50791 17.2357C2.44075 18.5071 3.86489 19.5882 5.63728 19.5882V17.5882C4.7311 17.5882 3.83659 17.0286 3.12044 16.0526C2.40655 15.0796 2 13.856 2 12.8795H0ZM5.63728 19.5882C6.91166 19.5882 7.87781 18.9833 8.49126 18.1182C9.08094 17.2865 9.33259 16.2422 9.33259 15.2734H7.33259C7.33259 15.9286 7.15734 16.5416 6.85975 16.9614C6.58592 17.3476 6.20442 17.5882 5.63728 17.5882V19.5882ZM14.9286 13.8214C12.4689 13.8214 9.8122 15.5331 7.84906 17.5698C6.84325 18.6134 5.96353 19.7975 5.33043 21.0022C4.70272 22.1965 4.28571 23.4719 4.28571 24.6819H6.28571C6.28571 23.9081 6.56137 22.959 7.10082 21.9326C7.6349 20.9164 8.39685 19.8834 9.28905 18.9578C11.122 17.0562 13.2867 15.8214 14.9286 15.8214V13.8214ZM4.28571 24.6819C4.28571 25.9244 4.78283 26.8659 5.65458 27.4459C6.45624 27.9794 7.45464 28.1261 8.34933 28.1261V26.1261C7.62013 26.1261 7.08672 25.9966 6.76255 25.7809C6.50846 25.6118 6.28571 25.3311 6.28571 24.6819H4.28571ZM8.34933 28.1261C9.75684 28.1261 10.9933 27.6919 12.0393 27.3247C13.1345 26.9401 14.0078 26.6362 14.9286 26.6362V24.6362C13.6061 24.6362 12.4034 25.0772 11.3767 25.4376C10.3008 25.8154 9.36927 26.1261 8.34933 26.1261V28.1261ZM14.9286 26.6362C15.7865 26.6362 16.6016 26.936 17.6356 27.3254C18.614 27.6938 19.7919 28.1429 21.1228 28.1429V26.1429C20.2103 26.1429 19.3626 25.8386 18.3404 25.4537C17.3739 25.0897 16.2135 24.6362 14.9286 24.6362V26.6362ZM21.1228 28.1429C21.9997 28.1429 23.0792 28.0655 23.9617 27.5901C24.4249 27.3405 24.8437 26.9766 25.1397 26.4618C25.4336 25.9505 25.5714 25.3512 25.5714 24.6819H23.5714C23.5714 25.0757 23.4917 25.3156 23.4057 25.465C23.3219 25.611 23.1987 25.7294 23.0132 25.8293C22.5982 26.0528 21.9534 26.1429 21.1228 26.1429V28.1429ZM25.5714 24.6819C25.5714 23.4755 25.154 22.202 24.5266 21.009C23.8936 19.8054 23.0141 18.6209 22.0084 17.5765C21.0031 16.5323 19.85 15.6057 18.6553 14.9347C17.4694 14.2685 16.1831 13.8214 14.9286 13.8214V15.8214C15.7248 15.8214 16.6693 16.113 17.6759 16.6784C18.6738 17.2389 19.6751 18.0366 20.5677 18.9637C21.4601 19.8905 22.2223 20.9242 22.7565 21.9399C23.2962 22.9661 23.5714 23.9129 23.5714 24.6819H25.5714ZM18.9297 12.2891C20.7507 12.2891 22.109 11.1384 22.9602 9.83542C23.8127 8.53059 24.2824 6.90163 24.2824 5.53013H22.2824C22.2824 6.50238 21.9318 7.75289 21.2859 8.74158C20.6388 9.73211 19.8207 10.2891 18.9297 10.2891V12.2891ZM24.2824 5.53013C24.2824 4.44238 24.0048 3.21782 23.3661 2.23233C22.7075 1.21627 21.6357 0.42857 20.1518 0.42857V2.42857C20.8275 2.42857 21.3209 2.75415 21.6878 3.32012C22.0744 3.91666 22.2824 4.74288 22.2824 5.53013H24.2824ZM20.1518 0.42857C18.3235 0.42857 16.9647 1.57785 16.1143 2.88328C15.2634 4.1893 14.7991 5.81809 14.7991 7.1875H16.7991C16.7991 6.21315 17.1467 4.96249 17.79 3.97498C18.4337 2.98688 19.2513 2.42857 20.1518 2.42857V0.42857ZM14.7991 7.1875C14.7991 8.27525 15.0767 9.49981 15.7154 10.4853C16.374 11.5014 17.4458 12.2891 18.9297 12.2891V10.2891C18.254 10.2891 17.7605 9.96348 17.3937 9.39751C17.0071 8.80097 16.7991 7.97475 16.7991 7.1875H14.7991ZM26.1618 8.54799C24.3873 8.54799 22.9632 9.63563 22.0314 10.9103C21.0971 12.1885 20.5246 13.8229 20.5246 15.2734H22.5246C22.5246 14.2965 22.9314 13.0682 23.646 12.0905C24.3633 11.1093 25.2578 10.548 26.1618 10.548V8.54799ZM20.5246 15.2734C20.5246 16.2422 20.7762 17.2865 21.3659 18.1182C21.9793 18.9833 22.9455 19.5882 24.2199 19.5882V17.5882C23.6527 17.5882 23.2712 17.3476 22.9974 16.9614C22.6998 16.5416 22.5246 15.9286 22.5246 15.2734H20.5246ZM24.2199 19.5882C25.9923 19.5882 27.4164 18.5071 28.3492 17.2357C29.2843 15.9612 29.8571 14.3304 29.8571 12.8795H27.8571C27.8571 13.856 27.4506 15.0796 26.7367 16.0526C26.0206 17.0286 25.126 17.5882 24.2199 17.5882V19.5882ZM29.8571 12.8795C29.8571 11.9071 29.5996 10.8603 29.0101 10.0271C28.3983 9.16255 27.434 8.54799 26.1618 8.54799V10.548C26.7144 10.548 27.0978 10.7872 27.3775 11.1824C27.6794 11.609 27.8571 12.2279 27.8571 12.8795H29.8571Z" fill="white"/>
</svg>
