<svg width="51" height="47" viewBox="0 0 51 47" fill="none" xmlns="http://www.w3.org/2000/svg">
<path d="M23.5045 10.9375C23.5045 6.71875 20.5815 0.571426 15.6696 0.571426C11.7824 0.571426 10.0346 4.57924 10.0346 7.95424C10.0346 12.173 12.9877 18.3203 17.8694 18.3203C21.7567 18.3203 23.5045 14.3125 23.5045 10.9375ZM13.1987 25.4922C13.1987 21.1228 9.67299 15.1864 4.85156 15.1864C1.56696 15.1864 0 18.26 0 21.183C0 25.5525 3.52567 31.4587 8.3471 31.4587C11.6618 31.4587 13.1987 28.4152 13.1987 25.4922ZM25.0714 24.6786C17.6886 24.6786 7.71429 35.2857 7.71429 42.4275C7.71429 45.8326 10.3058 46.827 13.2288 46.827C17.5982 46.827 21.0335 44.1451 25.0714 44.1451C28.9286 44.1451 32.183 46.8571 36.221 46.8571C39.2946 46.8571 42.4286 46.2545 42.4286 42.4275C42.4286 35.3158 32.4542 24.6786 25.0714 24.6786ZM32.2734 18.3203C37.1551 18.3203 40.1083 12.173 40.1083 7.95424C40.1083 4.57924 38.3605 0.571426 34.4732 0.571426C29.5614 0.571426 26.6384 6.71875 26.6384 10.9375C26.6384 14.3125 28.3862 18.3203 32.2734 18.3203ZM45.2913 15.1864C40.4699 15.1864 36.9442 21.1228 36.9442 25.4922C36.9442 28.4152 38.481 31.4587 41.7958 31.4587C46.6172 31.4587 50.1429 25.5525 50.1429 21.183C50.1429 18.26 48.5759 15.1864 45.2913 15.1864Z" fill="#F47A12"/>
</svg>
