<svg width="47" height="44" viewBox="0 0 47 44" fill="none" xmlns="http://www.w3.org/2000/svg">
<g filter="url(#filter0_d)">
<g clip-path="url(#clip0)">
<path d="M29.5001 20.9999H34.7502C35.3752 20.9999 35.9066 21.2186 36.3441 21.6561C36.7814 22.0937 37.0004 22.6249 37.0004 23.2501V23.9997C37.0004 25.6561 36.4143 27.07 35.2423 28.242C34.0704 29.4137 32.6562 29.9997 31 29.9997H29.5001C29.0939 29.9997 28.7425 30.1482 28.4455 30.445C28.1487 30.7419 28.0002 31.0933 28.0002 31.4996V34.4999C28.0002 34.9061 28.1487 35.2578 28.4455 35.5547C28.7424 35.8513 29.0939 36 29.5001 36H31C32.6252 36 34.1756 35.6833 35.6524 35.0508C37.1289 34.4179 38.4061 33.5623 39.4844 32.484C40.5626 31.4063 41.4179 30.129 42.0507 28.6523C42.6835 27.1757 43 25.6248 43 23.9998V7.50021C43 6.24955 42.5627 5.18761 41.6877 4.31227C40.8126 3.43743 39.7498 3.00004 38.4999 3.00004H29.4995C28.2497 3.00004 27.1873 3.43743 26.3121 4.31227C25.4373 5.18761 24.9997 6.24955 24.9997 7.50021V16.4998C24.9997 17.7502 25.4373 18.8121 26.3127 19.6876C27.1874 20.5623 28.2503 20.9999 29.5001 20.9999Z" fill="#C4C4C4"/>
<path d="M5.31227 19.6876C6.18703 20.5623 7.24954 20.9999 8.4997 20.9999H13.7497C14.3744 20.9999 14.9063 21.2186 15.3431 21.6561C15.7808 22.0937 15.9993 22.6249 15.9993 23.2501V23.9997C15.9993 25.6561 15.4133 27.07 14.2418 28.242C13.0703 29.4137 11.6562 29.9997 9.99918 29.9997H8.49962C8.09335 29.9997 7.74167 30.1482 7.44492 30.445C7.14832 30.7419 6.99932 31.0933 6.99932 31.4996V34.4999C6.99932 34.9061 7.14824 35.2578 7.44492 35.5547C7.74159 35.8513 8.09327 36 8.49962 36H9.99918C11.6252 36 13.1754 35.6833 14.6525 35.0508C16.1288 34.4179 17.4056 33.5623 18.4839 32.484C19.5621 31.4063 20.4179 30.129 21.0505 28.6523C21.6831 27.1757 22 25.6248 22 23.9998V7.50021C22 6.24955 21.5623 5.18761 20.6875 4.31227C19.8127 3.43743 18.7502 3.00004 17.5001 3.00004H8.5002C7.25003 3.00004 6.18761 3.43743 5.31284 4.31227C4.43742 5.18761 4.00062 6.24955 4.00062 7.50021V16.4998C4.00054 17.7503 4.43742 18.8121 5.31227 19.6876Z" fill="#C4C4C4"/>
</g>
</g>
<defs>
<filter id="filter0_d" x="0" y="0" width="47" height="47" filterUnits="userSpaceOnUse" color-interpolation-filters="sRGB">
<feFlood flood-opacity="0" result="BackgroundImageFix"/>
<feColorMatrix in="SourceAlpha" type="matrix" values="0 0 0 0 0 0 0 0 0 0 0 0 0 0 0 0 0 0 127 0"/>
<feOffset dy="4"/>
<feGaussianBlur stdDeviation="2"/>
<feColorMatrix type="matrix" values="0 0 0 0 0 0 0 0 0 0 0 0 0 0 0 0 0 0 0.25 0"/>
<feBlend mode="normal" in2="BackgroundImageFix" result="effect1_dropShadow"/>
<feBlend mode="normal" in="SourceGraphic" in2="effect1_dropShadow" result="shape"/>
</filter>
<clipPath id="clip0">
<rect x="43" y="39" width="39" height="39" transform="rotate(-180 43 39)" fill="white"/>
</clipPath>
</defs>
</svg>
