<svg width="39" height="39" viewBox="0 0 39 39" fill="none" xmlns="http://www.w3.org/2000/svg">
<g clip-path="url(#clip0)">
<path d="M13.4999 18.0002H8.24983C7.62478 18.0002 7.09341 17.7815 6.65586 17.3439C6.21856 16.9064 5.99963 16.3752 5.99963 15.75V15.0003C5.99963 13.3439 6.58568 11.93 7.75769 10.758C8.92962 9.58638 10.3438 9.00033 12 9.00033H13.4999C13.9061 9.00033 14.2575 8.85183 14.5545 8.55507C14.8513 8.25814 14.9998 7.90671 14.9998 7.50044V4.50017C14.9998 4.09398 14.8513 3.74222 14.5545 3.44529C14.2576 3.14878 13.9061 3.00003 13.4999 3.00003H12C10.3748 3.00003 8.82438 3.31674 7.34765 3.94925C5.87107 4.58218 4.5939 5.43773 3.51563 6.516C2.43745 7.59378 1.58214 8.87104 0.949301 10.3478C0.316461 11.8244 0 13.3752 0 15.0002L0 31.4998C0 32.7505 0.437299 33.8124 1.31231 34.6878C2.1874 35.5626 3.25015 36 4.50007 36H13.5005C14.7503 36 15.8127 35.5626 16.6879 34.6878C17.5627 33.8124 18.0003 32.7505 18.0003 31.4998V22.5002C18.0003 21.2498 17.5627 20.1879 16.6873 19.3125C15.8126 18.4377 14.7497 18.0002 13.4999 18.0002Z" fill="#C4C4C4"/>
<path d="M37.6877 19.3125C36.813 18.4377 35.7505 18.0002 34.5003 18.0002H29.2503C28.6256 18.0002 28.0937 17.7815 27.6569 17.3439C27.2192 16.9064 27.0007 16.3752 27.0007 15.75V15.0003C27.0007 13.3439 27.5867 11.93 28.7582 10.758C29.9297 9.58638 31.3438 9.00033 33.0008 9.00033H34.5004C34.9066 9.00033 35.2583 8.85183 35.5551 8.55507C35.8517 8.25814 36.0007 7.90671 36.0007 7.50044V4.50017C36.0007 4.09398 35.8518 3.74222 35.5551 3.44529C35.2584 3.14878 34.9067 3.00003 34.5004 3.00003H33.0008C31.3748 3.00003 29.8246 3.31674 28.3475 3.94925C26.8712 4.58218 25.5944 5.43773 24.5161 6.516C23.4379 7.59378 22.5821 8.87104 21.9495 10.3478C21.3169 11.8244 21 13.3752 21 15.0002V31.4998C21 32.7505 21.4377 33.8124 22.3125 34.6878C23.1873 35.5626 24.2498 36 25.4999 36H34.4998C35.75 36 36.8124 35.5626 37.6872 34.6878C38.5626 33.8124 38.9994 32.7505 38.9994 31.4998V22.5002C38.9995 21.2497 38.5626 20.1879 37.6877 19.3125Z" fill="#C4C4C4"/>
</g>
<defs>
<clipPath id="clip0">
<rect width="39" height="39" fill="white"/>
</clipPath>
</defs>
</svg>
