<svg width="25" height="25" viewBox="0 0 25 25" fill="none" xmlns="http://www.w3.org/2000/svg">
<g clip-path="url(#clip0)">
<path d="M20.625 15C18.9901 15 17.5785 15.9123 16.8277 17.2445L8.63372 14.0931C8.70486 13.7806 8.74997 13.4587 8.74997 13.125C8.74997 12.6921 8.66736 12.2821 8.5497 11.8869L16.9625 8.0036C17.7438 9.20231 19.0906 10 20.6249 10C23.0371 10 24.9999 8.03711 24.9999 5.62499C24.9999 3.21286 23.0371 1.24997 20.6249 1.24997C18.2128 1.24997 16.25 3.21286 16.25 5.62499C16.25 6.05788 16.3326 6.46786 16.4502 6.86307L8.03742 10.7464C7.25619 9.54766 5.90929 8.74996 4.37502 8.74996C1.96289 8.74996 0 10.7129 0 13.125C0 15.5371 1.96289 17.5 4.37502 17.5C6.0099 17.5 7.42154 16.5877 8.1723 15.2554L16.3663 18.4069C16.2951 18.7194 16.25 19.0413 16.25 19.375C16.25 21.7871 18.2129 23.75 20.625 23.75C23.0372 23.75 25.0001 21.7871 25.0001 19.375C25 16.9629 23.0371 15 20.625 15ZM20.625 2.50001C22.348 2.50001 23.75 3.90198 23.75 5.62499C23.75 7.34799 22.348 8.74996 20.625 8.74996C18.902 8.74996 17.5 7.34799 17.5 5.62499C17.5 3.90198 18.902 2.50001 20.625 2.50001ZM4.37502 16.25C2.65201 16.25 1.25004 14.848 1.25004 13.125C1.25004 11.402 2.65201 10 4.37502 10C6.09802 10 7.49999 11.402 7.49999 13.125C7.49999 14.848 6.09802 16.25 4.37502 16.25ZM20.625 22.5C18.902 22.5 17.5 21.098 17.5 19.375C17.5 17.652 18.902 16.25 20.625 16.25C22.348 16.25 23.75 17.652 23.75 19.375C23.75 21.098 22.348 22.5 20.625 22.5Z" fill="black"/>
</g>
<defs>
<clipPath id="clip0">
<rect width="25" height="25" fill="white"/>
</clipPath>
</defs>
</svg>
