<svg width="39" height="37" viewBox="0 0 39 37" fill="none" xmlns="http://www.w3.org/2000/svg">
<g clip-path="url(#clip0)">
<path d="M19.4396 36.8349C29.8025 36.8349 38.2034 28.7685 38.2034 18.8181C38.2034 8.86766 29.8025 0.80127 19.4396 0.80127C9.07662 0.80127 0.675781 8.86766 0.675781 18.8181C0.675781 28.7685 9.07662 36.8349 19.4396 36.8349Z" fill="#4D76A1"/>
<path fill-rule="evenodd" clip-rule="evenodd" d="M18.7303 26.72H20.2031C20.2031 26.72 20.6479 26.6731 20.8751 26.438C21.0841 26.2222 21.0774 25.8169 21.0774 25.8169C21.0774 25.8169 21.0486 23.9194 21.9658 23.64C22.8699 23.3648 24.0309 25.4739 25.2615 26.2848C26.192 26.8986 26.8991 26.764 26.8991 26.764L30.1894 26.72C30.1894 26.72 31.9106 26.6182 31.0945 25.3187C31.0276 25.2124 30.6192 24.3575 28.6481 22.6007C26.585 20.762 26.8613 21.0594 29.3465 17.8789C30.86 15.942 31.4651 14.7594 31.2761 14.2529C31.0958 13.7705 29.9827 13.8981 29.9827 13.8981L26.2779 13.9202C26.2779 13.9202 26.0033 13.8842 25.7996 14.0011C25.6006 14.1158 25.4725 14.383 25.4725 14.383C25.4725 14.383 24.8862 15.8819 24.1041 17.1566C22.4545 19.8464 21.7949 19.9883 21.5253 19.8213C20.8981 19.4321 21.0547 18.2576 21.0547 17.4232C21.0547 14.8166 21.4664 13.7298 20.2529 13.4484C19.8502 13.355 19.5538 13.2933 18.524 13.2833C17.2021 13.2702 16.0833 13.2872 15.4497 13.5852C15.0283 13.7834 14.7032 14.225 14.9012 14.2504C15.146 14.2818 15.7006 14.3939 15.9946 14.7784C16.3743 15.2743 16.3609 16.3881 16.3609 16.3881C16.3609 16.3881 16.579 19.4565 15.8515 19.8377C15.3521 20.0991 14.6671 19.5654 13.1963 17.1251C12.4427 15.8752 11.8738 14.4935 11.8738 14.4935C11.8738 14.4935 11.7641 14.2353 11.5684 14.0972C11.3309 13.9298 10.9991 13.8765 10.9991 13.8765L7.4787 13.8987C7.4787 13.8987 6.95021 13.9128 6.75621 14.1335C6.58362 14.3297 6.7425 14.7357 6.7425 14.7357C6.7425 14.7357 9.49863 20.9271 12.6194 24.0472C15.4809 26.9079 18.7303 26.72 18.7303 26.72Z" fill="white"/>
</g>
<defs>
<clipPath id="clip0">
<rect x="0.675781" y="0.80127" width="37.5276" height="36.0336" fill="white"/>
</clipPath>
</defs>
</svg>
